<svg xmlns="http://www.w3.org/2000/svg" viewBox="0 0 64 64">
  <defs>
    <linearGradient id="bg" x1="0%" y1="0%" x2="100%" y2="100%">
      <stop offset="0%" stop-color="#162235"/>
      <stop offset="100%" stop-color="#0c0e13"/>
    </linearGradient>
    <linearGradient id="shell" x1="0%" y1="0%" x2="0%" y2="100%">
      <stop offset="0%" stop-color="#ff8a72"/>
      <stop offset="100%" stop-color="#f87171"/>
    </linearGradient>
  </defs>

  <rect x="4" y="4" width="56" height="56" rx="14" fill="url(#bg)"/>

  <g fill="url(#shell)">
    <path d="M18 20c-2-5-8-6-12-3 4 2 5 6 4 10 4-2 7-1 10 2l4-4c-1-2-3-4-6-5z"/>
    <path d="M46 20c2-5 8-6 12-3-4 2-5 6-4 10-4-2-7-1-10 2l-4-4c1-2 3-4 6-5z"/>
    <circle cx="32" cy="22" r="8"/>
    <ellipse cx="32" cy="33" rx="11" ry="14"/>
    <path d="M27 45 21 53 25 55 30 48z"/>
    <path d="M37 45 43 53 39 55 34 48z"/>
    <circle cx="28" cy="54" r="2.5"/>
    <circle cx="36" cy="54" r="2.5"/>
  </g>

  <g stroke="#ffd2c7" stroke-width="2.5" stroke-linecap="round" fill="none">
    <path d="M27 18 23 11"/>
    <path d="M37 18 41 11"/>
    <path d="M22 29 14 25"/>
    <path d="M22 36 14 40"/>
    <path d="M42 29 50 25"/>
    <path d="M42 36 50 40"/>
  </g>

  <circle cx="29" cy="21" r="1.4" fill="#fff4ef"/>
  <circle cx="35" cy="21" r="1.4" fill="#fff4ef"/>
</svg>
